<?xml version="1.0" encoding="UTF-8" standalone="no"?>
<!DOCTYPE svg PUBLIC "-//W3C//DTD SVG 1.1//EN" "http://www.w3.org/Graphics/SVG/1.1/DTD/svg11.dtd">
<svg width="100%" height="100%" viewBox="0 0 800 600" version="1.1" xmlns="http://www.w3.org/2000/svg" xmlns:xlink="http://www.w3.org/1999/xlink" xml:space="preserve" xmlns:serif="http://www.serif.com/" style="fill-rule:evenodd;clip-rule:evenodd;stroke-linejoin:round;stroke-miterlimit:2;">
    <g transform="matrix(-3.84249,4.70569e-16,-4.70569e-16,-3.84249,1806.68,1335.21)">
        <path d="M439.26,208.286C439.26,213.253 430.334,223.033 412.481,237.626L404.564,241.817L401.304,247.406L390.826,254.391L376.156,268.363L374.06,272.554L369.17,277.444L369.869,287.69L377.786,303.757L382.443,310.976L383.607,315.167L387.566,322.851C389.118,325.956 389.894,328.207 389.894,329.604C389.894,331.778 388.497,333.951 385.703,336.124C385.082,336.59 384.345,337.405 383.491,338.569C382.637,339.734 381.744,340.316 380.813,340.316C378.795,340.316 376.815,339.345 374.875,337.405C372.935,335.465 371.654,333.563 371.033,331.7L366.609,318.66L361.486,311.674C360.865,307.328 359.778,302.67 358.226,297.703C357.45,297.082 356.44,295.685 355.199,293.511C354.267,291.959 353.103,291.183 351.706,291.183C350.774,291.183 349.3,292.347 347.281,294.676L342.857,299.799L331.447,307.949C313.595,329.527 303.039,340.316 299.779,340.316C297.76,340.316 295.82,338.065 293.957,333.563C292.56,330.148 292.56,327.509 293.957,325.646C298.925,319.126 308.084,311.053 321.434,301.429C328.11,296.616 333.931,291.183 338.899,285.129C343.556,279.54 345.884,275.504 345.884,273.02C345.884,271.468 345.341,269.45 344.254,266.966L343.789,262.076C342.857,260.368 340.839,257.03 337.734,252.063C335.561,247.561 331.602,239.489 325.859,227.846C323.53,223.189 320.813,219.075 317.709,215.504C315.535,213.02 314.449,211.235 314.449,210.149C314.449,207.199 315.652,204.521 318.058,202.115C320.464,199.709 322.831,198.506 325.16,198.506C326.557,198.506 328.653,200.757 331.447,205.259C333.776,209.14 337.191,215.039 341.693,222.956C342.159,223.732 343.944,228.156 347.049,236.229C348.601,240.42 350.503,243.447 352.754,245.31C355.005,247.173 356.44,248.725 357.061,249.967L362.417,259.747L365.444,259.281C371.809,254.314 382.288,245.232 396.88,232.037L403.167,225.983L405.961,221.791L412.714,216.669L419.467,206.889L422.727,204.56C424.745,200.99 426.22,199.204 427.151,199.204C429.946,199.204 432.662,200.058 435.301,201.766C437.94,203.473 439.26,205.647 439.26,208.286Z" style="fill-rule:nonzero;stroke:rgb(13,13,13);stroke-width:1.06px;"/>
    </g>
</svg>
